<svg xmlns="http://www.w3.org/2000/svg">
    <symbol id="copilot" viewBox="0 0 19 20">

    </symbol>

    <symbol id="wordpress" viewBox="0 0 17 18">
        <path d="M1.12461 8.76797C1.12461 11.6907 2.82462 14.208 5.28307 15.4045L1.76538 5.76682C1.34298 6.71097 1.12463 7.73364 1.12461 8.76797ZM8.5 16.1433C9.35655 16.1433 10.1804 15.993 10.9519 15.7249L10.8996 15.6268L8.63076 9.41528L6.42076 15.8426C7.07462 16.0387 7.77424 16.1433 8.5 16.1433ZM9.51345 5.30911L12.1811 13.2403L12.92 10.7818C13.2339 9.76182 13.4758 9.02951 13.4758 8.39528C13.4758 7.47989 13.1489 6.8522 12.8742 6.36835C12.495 5.75373 12.1485 5.2372 12.1485 4.63566C12.1485 3.95566 12.6585 3.32797 13.3908 3.32797H13.4823C12.1233 2.08037 10.3448 1.38951 8.5 1.39258C7.2785 1.39235 6.07609 1.69579 5.00096 2.27558C3.92581 2.85538 3.01167 3.69335 2.34076 4.71411L2.81154 4.7272C3.58307 4.7272 4.77307 4.62911 4.77307 4.62911C5.17846 4.60951 5.22424 5.19142 4.82538 5.2372C4.82538 5.2372 4.42655 5.28951 3.97538 5.30911L6.66924 13.2991L8.28424 8.46066L7.13345 5.30911C6.8757 5.2949 6.61841 5.27309 6.36193 5.24373C5.96307 5.21759 6.00885 4.60951 6.40769 4.62911C6.40769 4.62911 7.62385 4.7272 8.34962 4.7272C9.12115 4.7272 10.3111 4.62911 10.3111 4.62911C10.71 4.60951 10.7623 5.19142 10.3635 5.2372C10.3635 5.2372 9.96462 5.28297 9.51345 5.30911ZM12.2073 15.143C13.3231 14.4942 14.249 13.564 14.8927 12.4453C15.5364 11.3266 15.8752 10.0586 15.8754 8.76797C15.8754 7.48642 15.5485 6.28335 14.9731 5.23066C15.0899 6.3888 14.9146 7.55777 14.4631 8.63066L12.2073 15.143ZM8.5 17.268C6.24566 17.268 4.08365 16.3724 2.4896 14.7784C0.895533 13.1843 0 11.0223 0 8.76797C0 6.51363 0.895533 4.35162 2.4896 2.75757C4.08365 1.1635 6.24566 0.267967 8.5 0.267967C10.7543 0.267967 12.9163 1.1635 14.5104 2.75757C16.1045 4.35162 17 6.51363 17 8.76797C17 11.0223 16.1045 13.1843 14.5104 14.7784C12.9163 16.3724 10.7543 17.268 8.5 17.268Z"
              fill="#126FC2"/>
    </symbol>

    <symbol id="framer" viewBox="0 0 13 20">
        <path fill-rule="evenodd" clip-rule="evenodd" d="M0 12.8632L6.5 12.8632L6.5 19.0537L0 12.8632Z" fill="#0055FF"/>
        <path d="M6.5 6.67267L0 6.67267L0 12.8632L13 12.8632L6.5 6.67267Z" fill="#00AAFF"/>
        <path d="M0 0.482216L6.5 6.6727L13 6.6727L13 0.482216L0 0.482216Z" fill="#88DDFF"/>
    </symbol>

    <symbol id="webflow" viewBox="0 0 18 19">
        <path fill-rule="evenodd" clip-rule="evenodd"
              d="M2 0.482216C0.895431 0.482216 0 1.37765 0 2.48222L0 16.4822C0 17.5868 0.89543 18.4822 2 18.4822L16 18.4822C17.1046 18.4822 18 17.5868 18 16.4822L18 2.48222C18 1.37765 17.1046 0.482216 16 0.482216L2 0.482216Z"
              fill="white"/>
        <path fill-rule="evenodd" clip-rule="evenodd"
              d="M2 0.482216C0.895431 0.482216 0 1.37765 0 2.48222L0 16.4822C0 17.5868 0.89543 18.4822 2 18.4822L16 18.4822C17.1046 18.4822 18 17.5868 18 16.4822L18 2.48222C18 1.37765 17.1046 0.482216 16 0.482216L2 0.482216ZM12.401 7.82544C12.401 7.82544 11.428 10.7643 11.3485 11.007C11.1035 9.16515 10.8561 7.32354 10.6065 5.48222C8.9485 5.48222 8.062 6.61868 7.5935 7.81822L6.311 11.0143C6.3035 10.7851 6.131 7.85289 6.131 7.85289C6.029 6.3832 4.631 5.48848 3.5 5.48848L4.8695 13.4822C6.6065 13.475 7.543 12.3453 8.0335 11.1457C8.0335 11.1457 9.0785 8.54632 9.1215 8.42834C9.129 8.5391 9.8715 13.4817 9.8715 13.4817C11.6155 13.4817 12.5525 12.4214 13.0565 11.2637L15.5 5.48896C13.7775 5.48896 12.8695 6.61916 12.401 7.82544Z"
              fill="#4353FF"/>
    </symbol>

    <symbol id="zapier" viewBox="0 0 20 21">
        <path d="M10 20.4822C15.5228 20.4822 20 16.0051 20 10.4822C20 4.95937 15.5228 0.482216 10 0.482216C4.47715 0.482216 0 4.95937 0 10.4822C0 16.0051 4.47715 20.4822 10 20.4822Z"
              fill="#FF4A00"/>
        <path d="M11.25 10.4844C11.2501 10.8446 11.185 11.2019 11.058 11.5391C10.7206 11.6666 10.3629 11.732 10.0021 11.7322H9.99785C9.6376 11.7322 9.2803 11.6672 8.94316 11.5402C8.81564 11.2028 8.7502 10.8451 8.75 10.4844V10.4801C8.75004 10.1198 8.81508 9.76253 8.94199 9.42538C9.27942 9.29785 9.63713 9.23241 9.99785 9.23222H10.0021C10.3628 9.23207 10.7205 9.29718 11.058 9.4244C11.185 9.76153 11.2501 10.1188 11.25 10.4791V10.4834V10.4844ZM14.9305 9.64882H12.0117L14.0756 7.58515C13.9135 7.3578 13.7327 7.14437 13.5352 6.94706C13.3378 6.74978 13.1244 6.56927 12.8971 6.40741L10.8334 8.4705V5.55175C10.5589 5.50564 10.2811 5.48238 10.0027 5.48222H9.99746C9.71913 5.48238 9.44129 5.50564 9.1668 5.55175V8.4705L7.10293 6.40663C6.87559 6.56874 6.66216 6.74951 6.46484 6.94706C6.26764 7.14428 6.0872 7.35758 5.92539 7.58475L7.98828 9.64882H5.06953C5.06953 9.64882 5 10.1971 5 10.4805V10.484C5.00011 10.7626 5.02337 11.0408 5.06953 11.3156H7.98828L5.92441 13.3793C6.24896 13.8349 6.64727 14.2333 7.10293 14.5578L9.1666 12.4939V15.4127C9.44083 15.4587 9.71841 15.482 9.99648 15.4822H10.0037C10.2817 15.482 10.5592 15.4587 10.8334 15.4127V12.4939L12.8971 14.5578C13.1244 14.3957 13.3378 14.2149 13.5352 14.0174C13.7325 13.82 13.9131 13.6066 14.075 13.3793L12.0117 11.3156H14.9305C14.9765 11.0414 14.9998 10.7638 15 10.4857V10.4785C14.9998 10.2005 14.9765 9.92299 14.9305 9.64882Z"
              fill="white"/>
    </symbol>

    <symbol id="meet" viewBox="0 0 21 17">
        <path d="M0.750061 15.3219C0.750061 16.0271 1.32618 16.5983 2.03601 16.5983H2.0545C1.3338 16.5983 0.750061 16.0271 0.750061 15.3219Z"
              fill="#FBBC05"/>
        <path d="M11.8006 5.43004V8.76241L16.2933 5.1386V1.92004C16.2933 1.21485 15.7172 0.643677 15.0074 0.643677L5.27412 0.643677L5.26543 5.43004L11.8006 5.43004Z"
              fill="#FBBC05"/>
        <path d="M11.8009 12.0962H5.25485L5.24724 16.5986H15.0077C15.7186 16.5986 16.2936 16.0274 16.2936 15.3222V12.4163L11.8009 8.76381V12.0962Z"
              fill="#34A853"/>
        <path d="M5.27427 0.643677L0.750061 5.43004L5.26666 5.43004L5.27427 0.643677Z" fill="#EA4335"/>
        <path d="M0.750061 12.0959L0.750061 15.3219C0.750061 16.0271 1.3338 16.5982 2.0545 16.5982H5.2471L5.25471 12.0959H0.750061Z"
              fill="#1967D2"/>
        <path d="M5.26666 5.43004L0.750061 5.43004L0.750061 12.0958H5.25471L5.26666 5.43004Z" fill="#4285F4"/>
        <path d="M20.2436 14.1873V3.23182C19.9903 1.77783 18.3956 3.44455 18.3956 3.44455L16.2944 5.13892V12.4153L19.3022 14.8606C20.3881 15.0031 20.2436 14.1873 20.2436 14.1873Z"
              fill="#34A853"/>
        <path d="M11.8007 8.76241L16.2944 12.416V5.13966L11.8007 8.76241Z" fill="#188038"/>
    </symbol>

    <symbol id="vector" viewBox="0 0 18 19">
        <path d="M3.6816 3.86712C4.23247 4.3146 4.43923 4.28063 5.4745 4.21122L15.2328 3.62565C15.4395 3.62565 15.2675 3.41889 15.1988 3.38492L13.5772 2.21305C13.2671 1.97232 12.8528 1.69615 12.0598 1.76482L2.61163 2.45451C2.26752 2.48848 2.19811 2.66127 2.33546 2.79862L3.6816 3.86712ZM4.26718 6.14146L4.26718 16.4085C4.26718 16.9601 4.54261 17.1669 5.16362 17.1322L15.8878 16.5119C16.5088 16.4779 16.5782 16.0984 16.5782 15.6501V5.45177C16.5782 5.00429 16.4061 4.76282 16.0258 4.79679L4.81878 5.45177C4.40526 5.48648 4.26718 5.69398 4.26718 6.14146ZM14.854 6.69159C14.9226 7.00173 14.854 7.31186 14.5438 7.34731L14.0269 7.45069V15.0299C13.578 15.2713 13.1644 15.4094 12.8196 15.4094C12.2673 15.4094 12.1292 15.2366 11.7157 14.7205L8.33589 9.41416V14.5477L9.40513 14.7899C9.40513 14.7899 9.40513 15.4102 8.54265 15.4102L6.16345 15.5475C6.09478 15.4102 6.16345 15.0653 6.40491 14.9966L7.02519 14.8246L7.02519 8.03626L6.16493 7.96685C6.09551 7.65671 6.2683 7.20922 6.75049 7.17452L9.30249 7.00246L12.8203 12.3775V7.622L11.9232 7.51936C11.8545 7.13981 12.1299 6.86438 12.4748 6.83041L14.854 6.69159ZM1.81856 1.5241L11.647 0.80044C12.8536 0.697061 13.1644 0.765734 13.9228 1.31734L17.0604 3.52227C17.5773 3.90108 17.7501 4.00446 17.7501 4.41798L17.7501 16.5119C17.7501 17.2695 17.4746 17.7185 16.5095 17.7864L5.09495 18.4761C4.37129 18.5108 4.02571 18.4074 3.64616 17.9245L1.33563 14.9265C0.922114 14.3749 0.750061 13.9621 0.750061 13.4792L0.750061 2.7292C0.750061 2.10967 1.02623 1.59203 1.81856 1.5241Z"
              fill="black"/>
    </symbol>

    <symbol id="ilustrator" viewBox="0 0 15 15">
        <path d="M0.240005 5.3417C0.240005 3.47194 0.240005 2.53705 0.603887 1.82289C0.923968 1.1947 1.43471 0.683963 2.0629 0.363881C2.77705 0 3.71194 0 5.5817 0H9.65831C11.5281 0 12.463 0 13.1771 0.363881C13.8053 0.683963 14.316 1.1947 14.6361 1.82289C15 2.53705 15 3.47194 15 5.3417V9.4183C15 11.2881 15 12.223 14.6361 12.9371C14.316 13.5653 13.8053 14.076 13.1771 14.3961C12.463 14.76 11.5281 14.76 9.65831 14.76H5.5817C3.71194 14.76 2.77705 14.76 2.0629 14.3961C1.43471 14.076 0.923968 13.5653 0.603887 12.9371C0.240005 12.223 0.240005 11.2881 0.240005 9.4183V5.3417Z"
              fill="#330000"/>
        <path d="M7.3926 9.27576H5.10538L4.64002 10.7585C4.62711 10.8135 4.5764 10.8526 4.5212 10.8498H3.36272C3.29666 10.8498 3.27356 10.8126 3.29341 10.7381L5.2737 4.88862C5.29352 4.82768 5.31334 4.75831 5.33311 4.68045C5.35904 4.54492 5.37228 4.40723 5.37275 4.26917C5.36706 4.22837 5.4029 4.19233 5.44202 4.19805H7.01638C7.06251 4.19805 7.08886 4.21498 7.09556 4.24882L9.34324 10.7483C9.36301 10.816 9.34324 10.8499 9.28383 10.8498H7.9966C7.95148 10.855 7.90836 10.824 7.89761 10.7788L7.3926 9.27576ZM5.46184 7.99618H7.02629C6.76926 7.11785 6.47917 6.25107 6.24406 5.36594C5.9904 6.2526 5.71365 7.13567 5.46184 7.99618Z"
              fill="#FF9A00"/>
        <path d="M10.6798 5.27449C10.5788 5.27865 10.4781 5.26089 10.3842 5.22241C10.2904 5.18393 10.2055 5.12552 10.1352 5.05109C10.0651 4.97339 10.0106 4.8823 9.97491 4.78293C9.93923 4.68362 9.92304 4.57803 9.92726 4.47223C9.92368 4.36749 9.94165 4.26317 9.98003 4.16604C10.0185 4.06892 10.0764 3.9812 10.1501 3.9086C10.223 3.83675 10.3092 3.78047 10.4035 3.74299C10.4978 3.70551 10.5985 3.68759 10.6996 3.69026C10.9373 3.69026 11.1237 3.76304 11.259 3.9086C11.3274 3.98424 11.3804 4.07296 11.4153 4.16968C11.4501 4.26638 11.466 4.36923 11.462 4.47223C11.4661 4.5784 11.4494 4.68441 11.4129 4.78382C11.3763 4.88324 11.3206 4.97412 11.2491 5.05109C11.1744 5.12663 11.0852 5.18545 10.9873 5.22394C10.8893 5.26236 10.7846 5.2796 10.6798 5.27449ZM9.99658 10.7482V5.89399C9.99658 5.83305 10.0229 5.80258 10.0758 5.80258H11.2937C11.3464 5.80258 11.3728 5.83305 11.3729 5.89399V10.7482C11.3729 10.816 11.3465 10.8499 11.2937 10.8498H10.0857C10.0263 10.8498 9.99658 10.816 9.99658 10.7482Z"
              fill="#FF9A00"/>
    </symbol>

    <symbol id="premierPro" viewBox="0 0 15 15">
        <path d="M0 5.3417C0 3.47194 0 2.53705 0.363881 1.82289C0.683963 1.1947 1.1947 0.683963 1.82289 0.363881C2.53705 0 3.47194 0 5.3417 0H9.4183C11.2881 0 12.223 0 12.9371 0.363881C13.5653 0.683963 14.076 1.1947 14.3961 1.82289C14.76 2.53705 14.76 3.47194 14.76 5.3417V9.4183C14.76 11.2881 14.76 12.223 14.3961 12.9371C14.076 13.5653 13.5653 14.076 12.9371 14.3961C12.223 14.76 11.2881 14.76 9.4183 14.76H5.3417C3.47194 14.76 2.53705 14.76 1.82289 14.3961C1.1947 14.076 0.683963 13.5653 0.363881 12.9371C0 12.223 0 11.2881 0 9.4183V5.3417Z"
              fill="#00005B"/>
        <path d="M3.16286 10.4352V3.79963C3.16286 3.75449 3.18136 3.72869 3.22454 3.72869C3.86198 3.72869 4.49911 3.69 5.13674 3.69C6.17131 3.69 7.2916 4.05058 7.68427 5.15383C7.77678 5.42467 7.82612 5.70195 7.82612 5.99214C7.82612 6.54669 7.70277 7.00452 7.45601 7.36566C6.76683 8.3744 5.57222 8.35875 4.50138 8.35875V10.4287C4.50976 10.49 4.45852 10.519 4.40886 10.519H3.23688C3.18753 10.519 3.16286 10.4932 3.16286 10.4352ZM4.50755 4.97328V7.13994C4.93216 7.17168 5.37644 7.1751 5.78439 7.03678C6.23478 6.90436 6.48143 6.507 6.48143 6.03083C6.49398 5.62509 6.27706 5.23574 5.9078 5.08936C5.50474 4.91851 4.94265 4.90828 4.50755 4.97328Z"
              fill="#9999FF"/>
        <path d="M8.66228 5.38312H9.74482C9.80449 5.3837 9.85811 5.42677 9.87387 5.48697C9.9532 5.6711 9.96301 5.89319 9.96327 6.09197C10.1489 5.86599 10.3728 5.67774 10.6237 5.53652C10.8928 5.37738 11.1978 5.29667 11.507 5.30295C11.5583 5.29525 11.6037 5.34275 11.5964 5.39636V6.65259C11.5964 6.70114 11.5631 6.72528 11.497 6.72528C11.0389 6.69223 10.3255 6.80541 9.99258 7.18211V10.4485C9.99258 10.5108 9.96612 10.542 9.91314 10.542H8.75169C8.69465 10.5505 8.64431 10.4968 8.65237 10.4381V6.89139C8.65237 6.41617 8.66223 5.92661 8.5928 5.45582C8.5821 5.41249 8.62175 5.37221 8.66228 5.38312Z"
              fill="#9999FF"/>
    </symbol>

    <symbol id="photoshop" viewBox="0 0 16 15">
        <path d="M0.619995 5.46169C0.619995 3.59193 0.619995 2.65704 0.983877 1.94289C1.30396 1.3147 1.8147 0.803958 2.44289 0.483877C3.15704 0.119995 4.09193 0.119995 5.96169 0.119995H10.0383C11.9081 0.119995 12.843 0.119995 13.5571 0.483877C14.1853 0.803958 14.696 1.3147 15.0161 1.94289C15.38 2.65704 15.38 3.59193 15.38 5.46169V9.5383C15.38 11.4081 15.38 12.343 15.0161 13.0571C14.696 13.6853 14.1853 14.196 13.5571 14.5161C12.843 14.88 11.9081 14.88 10.0383 14.88H5.96169C4.09193 14.88 3.15704 14.88 2.44289 14.5161C1.8147 14.196 1.30396 13.6853 0.983877 13.0571C0.619995 12.343 0.619995 11.4081 0.619995 9.5383V5.46169Z"
              fill="#001E36"/>
        <path d="M3.78285 10.935V4.44436C3.78285 4.40024 3.8013 4.37499 3.84435 4.37499C4.47989 4.37499 5.11515 4.33714 5.75083 4.33714C6.7824 4.33714 7.89931 4.68985 8.29082 5.76897C8.38307 6.03391 8.43225 6.30513 8.43225 6.58899C8.43225 7.13147 8.30927 7.57928 8.06325 7.93252C7.37607 8.91923 6.18504 8.90389 5.11742 8.90389V10.9287C5.12575 10.9886 5.07467 11.017 5.02517 11.017H3.85665C3.80745 11.017 3.78285 10.9917 3.78285 10.935ZM5.12353 5.59238V7.71175C5.54688 7.74275 5.98984 7.74612 6.39658 7.61086C6.84566 7.48129 7.09157 7.09262 7.09157 6.62684C7.10401 6.22996 6.88778 5.84915 6.51962 5.70592C6.11778 5.53882 5.55732 5.5288 5.12353 5.59238Z"
              fill="#31A8FF"/>
        <path d="M12.2681 7.29305C12.082 7.19495 11.8838 7.1232 11.6789 7.07977C11.4157 7.01783 10.3773 6.80086 10.3769 7.34381C10.3861 7.64692 10.8673 7.79542 11.0799 7.88203C11.8263 8.13827 12.6708 8.5963 12.6542 9.51707C12.6771 10.6633 11.5665 11.1215 10.6145 11.1216C10.1189 11.1267 9.60266 11.05 9.14911 10.8372C9.10578 10.8143 9.07794 10.7653 9.07979 10.7154V9.61859C9.07489 9.57463 9.12212 9.5362 9.15902 9.56783C9.6034 9.83657 10.1301 9.96709 10.6442 9.97404C10.8712 9.97404 11.3209 9.95206 11.3176 9.61859C11.3176 9.29862 10.7795 9.15149 10.565 9.07021C10.2541 8.95924 9.95933 8.80547 9.68874 8.61322C9.31057 8.34349 9.07336 7.91102 9.07979 7.43522C9.07758 6.35595 10.0999 5.8715 11.0205 5.87129C11.4509 5.86771 11.9131 5.8996 12.3137 6.0744C12.3713 6.09132 12.3832 6.15205 12.383 6.2064V7.23211C12.3867 7.29579 12.316 7.31746 12.2681 7.29305Z"
              fill="#31A8FF"/>
    </symbol>

    <symbol id="figma" viewBox="0 0 11 15">
        <path fill-rule="evenodd" clip-rule="evenodd"
              d="M5.62 7.5C5.62 6.11929 6.73928 5 8.12 5C9.50071 5 10.62 6.11929 10.62 7.5C10.62 8.88071 9.50071 10 8.12 10C6.73928 10 5.62 8.88071 5.62 7.5Z"
              fill="#1ABCFE"/>
        <path fill-rule="evenodd" clip-rule="evenodd"
              d="M0.619995 12.5C0.619995 11.1193 1.73928 10 3.12 10H5.62V12.5C5.62 13.8807 4.50071 15 3.12 15C1.73928 15 0.619995 13.8807 0.619995 12.5Z"
              fill="#0ACF83"/>
        <path fill-rule="evenodd" clip-rule="evenodd"
              d="M5.62 0L5.62 5H8.12C9.50071 5 10.62 3.88071 10.62 2.5C10.62 1.11929 9.50071 0 8.12 0L5.62 0Z"
              fill="#FF7262"/>
        <path fill-rule="evenodd" clip-rule="evenodd"
              d="M0.619995 2.5C0.619995 3.88071 1.73928 5 3.12 5L5.62 5L5.62 0L3.12 0C1.73928 0 0.619995 1.11929 0.619995 2.5Z"
              fill="#F24E1E"/>
        <path fill-rule="evenodd" clip-rule="evenodd"
              d="M0.619995 7.5C0.619995 8.88071 1.73928 10 3.12 10H5.62L5.62 5L3.12 5C1.73928 5 0.619995 6.11929 0.619995 7.5Z"
              fill="#A259FF"/>
    </symbol>

    <symbol id="heart" viewBox="0 0 11 11">
        <path d="M2.75 0.807373C1.99375 0.807373 1.32 1.12388 0.81125 1.61929C0.31625 2.1147 0 2.78901 0 3.55965C0 4.31653 0.31625 4.99083 0.81125 5.5L5.5 10.1926L10.1887 5.5C10.6838 5.0046 11 4.33029 11 3.55965C11 2.80277 10.6838 2.12847 10.1887 1.61929C9.69375 1.12388 9.02 0.807373 8.25 0.807373C7.49375 0.807373 6.82 1.12388 6.31125 1.61929C5.81625 2.1147 5.5 2.78901 5.5 3.55965C5.5 2.80277 5.18375 2.12847 4.68875 1.61929C4.19375 1.12388 3.52 0.807373 2.75 0.807373Z"
              fill="#F6ED1E"/>
    </symbol>

</svg>